<svg xmlns="http://www.w3.org/2000/svg" width="20.8" height="25.151" viewBox="0 0 20.8 25.151">
  <path id="Icon_metro-youtube2" data-name="Icon metro-youtube2" d="M18.484,19.663v2.961q0,.94-.547.94a.9.9,0,0,1-.632-.309V19.032a.9.9,0,0,1,.632-.309q.547,0,.547.94Zm4.744.014v.646H21.965v-.646q0-.954.632-.954t.632.954ZM9.67,16.618h1.5V15.3H6.793v1.319H8.266V24.6h1.4ZM13.712,24.6h1.249V17.67H13.712v5.305q-.421.589-.8.589-.253,0-.295-.295a3.9,3.9,0,0,1-.014-.491V17.67H11.354v5.488a3.47,3.47,0,0,0,.112,1.025.756.756,0,0,0,.814.519,2.055,2.055,0,0,0,1.432-.856V24.6Zm6.021-2.077V19.761a4.991,4.991,0,0,0-.126-1.389.975.975,0,0,0-1-.786,1.691,1.691,0,0,0-1.305.758V15.3H16.056V24.6H17.3V23.93a1.741,1.741,0,0,0,1.305.772.971.971,0,0,0,1-.772A5.159,5.159,0,0,0,19.733,22.526Zm4.744-.14V22.2H23.2a6.949,6.949,0,0,1-.028.856.537.537,0,0,1-.561.505q-.646,0-.646-.968V21.375h2.512V19.93A2.785,2.785,0,0,0,24.1,18.3a1.919,1.919,0,0,0-2.989,0,2.708,2.708,0,0,0-.393,1.628v2.428a2.636,2.636,0,0,0,.407,1.628,1.8,1.8,0,0,0,1.516.716,1.737,1.737,0,0,0,1.811-1.5,6.178,6.178,0,0,0,.028-.814ZM15.944,9.572V6.625q0-.968-.6-.968t-.6.968V9.572q0,.982.6.982t.6-.982Zm10.091,10.54a24.319,24.319,0,0,1-.365,4.912,2.665,2.665,0,0,1-.814,1.389,2.455,2.455,0,0,1-1.432.646,75.044,75.044,0,0,1-7.79.295,75.044,75.044,0,0,1-7.79-.295,2.488,2.488,0,0,1-1.439-.646A2.566,2.566,0,0,1,5.6,25.025a23.817,23.817,0,0,1-.365-4.912A24.318,24.318,0,0,1,5.6,15.2a2.665,2.665,0,0,1,.814-1.389,2.545,2.545,0,0,1,1.446-.66q2.568-.281,7.775-.281t7.79.281A2.636,2.636,0,0,1,25.67,15.2a23.817,23.817,0,0,1,.365,4.912ZM12.028,2.2h1.432l-1.7,5.6v3.8h-1.4V7.8A23.767,23.767,0,0,0,9.5,4.828Q8.982,3.382,8.589,2.2h1.488l1,3.691Zm5.193,4.674V9.333a2.766,2.766,0,0,1-.393,1.656,1.727,1.727,0,0,1-1.488.716,1.736,1.736,0,0,1-1.474-.716,2.805,2.805,0,0,1-.393-1.656V6.877a2.737,2.737,0,0,1,.393-1.642,1.736,1.736,0,0,1,1.474-.716,1.727,1.727,0,0,1,1.488.716,2.737,2.737,0,0,1,.393,1.642Zm4.7-2.274v7H20.645v-.772a2.02,2.02,0,0,1-1.446.87.78.78,0,0,1-.828-.519,3.6,3.6,0,0,1-.112-1.053V4.6h1.277V9.754a3.687,3.687,0,0,0,.014.491q.042.309.295.309.379,0,.8-.6V4.6Z" transform="translate(-5.235 -2.203)"/>
</svg>
