<svg  xmlns="http://www.w3.org/2000/svg" width="48.45" height="15.753" viewBox="0 0 48.45 15.753">
  <path id="Path_9" data-name="Path 9" d="M4.829,10.454a1.125,1.125,0,0,0,0,1.593L10.784,18,4.828,23.954a1.126,1.126,0,1,0,1.593,1.593l6.75-6.75a1.125,1.125,0,0,0,0-1.593l-6.75-6.75a1.125,1.125,0,0,0-1.593,0Z" transform="translate(34.948 -10.123)" fill-rule="evenodd"/>
  <path id="Path_10" data-name="Path 10" d="M52.949,18a1.125,1.125,0,0,0-1.125-1.125L6.75,16.784a1.125,1.125,0,1,0,0,2.25l45.074.091A1.125,1.125,0,0,0,52.949,18Z" transform="translate(-5.625 -10.123)" fill-rule="evenodd"/>
</svg>
