<svg xmlns="http://www.w3.org/2000/svg" width="23.25" height="23.243" viewBox="0 0 23.25 23.243">
  <path id="key-outline" d="M11.961,9.39a5.708,5.708,0,0,0,.207,1.888c-2.175,2.554-7.92,9.3-8.455,9.818a1.018,1.018,0,0,0-.338.757,1.687,1.687,0,0,0,.485,1.075c.333.348,1.757,1.666,2.019,1.414.777-.757.934-.959,1.252-1.272.48-.47-.05-1.429.116-1.817a.736.736,0,0,1,.631-.525,9.473,9.473,0,0,1,1.2.151,1.262,1.262,0,0,0,.959-.464,1.061,1.061,0,0,0,.439-.788c.01-.454-.646-1.055-.157-1.534s1.2.313,1.716.253a1.906,1.906,0,0,0,1.217-1.09c.066-.308-.591-1.1-.49-1.55a1.051,1.051,0,0,1,.576-.555c.233-.05,1.262.348,1.494.3a3.528,3.528,0,0,0,.878-.525,5.686,5.686,0,0,0,2.408.475,6.143,6.143,0,0,0,6.259-6.017,6.136,6.136,0,0,0-6.261-6.007A6.048,6.048,0,0,0,11.961,9.39Zm9.182-1.169a1.615,1.615,0,1,1-1.615-1.615A1.615,1.615,0,0,1,21.143,8.221Z" transform="translate(-2.25 -2.25)" fill="none" stroke="#3fa0cd" stroke-linejoin="round" stroke-width="2.25"/>
</svg>
