<svg xmlns="http://www.w3.org/2000/svg" width="16.68" height="16.104" viewBox="0 0 16.68 16.104">
  <g id="sign-out-line" transform="translate(-5 -4)">
    <path id="Path_160" data-name="Path 160" d="M6.15,5.15h9.2v5.637H16.5V5.15A1.15,1.15,0,0,0,15.353,4H6.15A1.15,1.15,0,0,0,5,5.15v13.8A1.15,1.15,0,0,0,6.15,20.1h9.2a1.15,1.15,0,0,0,1.15-1.15H6.15Z" fill="#44a2ce"/>
    <path id="Path_161" data-name="Path 161" d="M22.412,17.178a.575.575,0,0,0-.811.811l1.944,1.9h-8.34a.575.575,0,1,0,0,1.15h8.34L21.6,23.033a.575.575,0,1,0,.811.811l3.359-3.336Z" transform="translate(-4.091 -5.54)" fill="#44a2ce"/>
  </g>
</svg>
