<svg xmlns="http://www.w3.org/2000/svg" width="53.659" height="13.487" viewBox="0 0 53.659 13.487">
  <g id="g1527" transform="translate(-78.878 -84.219)">
    <path id="path888" d="M78.878,84.719H82.7V97.8H78.878Z" transform="translate(0 -0.298)" fill="#1a1a1a"/>
    <path id="path890" d="M97.966,84.719l3.791,5.887V84.719Zm-.028,7.01V97.8h3.818v-.14Z" transform="translate(-11.329 -0.298)" fill="#e81747"/>
    <path id="path892" d="M120.69,97.705a14.825,14.825,0,0,1-2.519-.2,8.247,8.247,0,0,1-1.99-.609V93.744a11.051,11.051,0,0,0,2.051.691,9.046,9.046,0,0,0,2.072.264,4.723,4.723,0,0,0,1.564-.183.846.846,0,0,0,.244-1.361,1.666,1.666,0,0,0-.67-.406q-.447-.183-1.422-.487a4.84,4.84,0,0,1-.487-.142,8.706,8.706,0,0,1-2.112-.934,3.121,3.121,0,0,1-1.1-1.219A4.45,4.45,0,0,1,116,88.159a3.376,3.376,0,0,1,1.381-2.925,6.809,6.809,0,0,1,4.062-1.016,13.708,13.708,0,0,1,2.173.183,11.527,11.527,0,0,1,1.909.406v3.169a9.369,9.369,0,0,0-3.473-.711,6.1,6.1,0,0,0-1.625.162.681.681,0,0,0-.528.711.7.7,0,0,0,.223.548,2.034,2.034,0,0,0,.67.366q.467.142,1.564.427a7.405,7.405,0,0,1,2.4,1.036,3.177,3.177,0,0,1,1.178,1.361,4.81,4.81,0,0,1,.325,1.869,3.454,3.454,0,0,1-1.422,2.9,6.824,6.824,0,0,1-4.143,1.056Z" transform="translate(-22.064 0)" fill="#1a1a1a"/>
    <path id="path894" d="M144.775,84.719h3.818V97.8h-3.818Z" transform="translate(-39.168 -0.298)" fill="#1a1a1a"/>
    <path id="path896" d="M160.337,87.563H156.66V84.719h11.171v2.844h-3.676V97.8h-3.818Z" transform="translate(-46.233 -0.298)" fill="#1a1a1a"/>
    <path id="path898" d="M186.734,84.719h9.912v2.925h-6.093v2.133h5.342v2.965h-5.342v2.133h6.093V97.8h-9.912Z" transform="translate(-64.108 -0.298)" fill="#1a1a1a"/>
  </g>
</svg>
