<svg xmlns="http://www.w3.org/2000/svg" width="15.68" height="16.105" viewBox="0 0 15.68 16.105">
  <g id="settings" transform="translate(-2.715 -2.295)">
    <path id="Path_158" data-name="Path 158" d="M16.9,10.785V9.9L18,8.934a1.154,1.154,0,0,0,.219-1.471L16.861,5.156a1.163,1.163,0,0,0-1.367-.519l-1.4.473a6.547,6.547,0,0,0-.756-.433l-.294-1.454a1.154,1.154,0,0,0-1.154-.929H9.19a1.154,1.154,0,0,0-1.154.929L7.742,4.677a6.621,6.621,0,0,0-.761.433l-1.373-.5a1.154,1.154,0,0,0-.369-.034,1.154,1.154,0,0,0-1,.577L2.88,7.463a1.154,1.154,0,0,0,.236,1.448l1.09,1v.882l-1.09.969a1.154,1.154,0,0,0-.236,1.471l1.361,2.307a1.163,1.163,0,0,0,1.367.519l1.4-.473a6.547,6.547,0,0,0,.756.433L8.06,17.47a1.154,1.154,0,0,0,1.154.929h2.722a1.154,1.154,0,0,0,1.154-.929l.294-1.454a6.622,6.622,0,0,0,.761-.433l1.4.473a1.163,1.163,0,0,0,1.367-.519l1.315-2.307a1.154,1.154,0,0,0-.236-1.448Zm-1.033,4.176-1.979-.669a5.11,5.11,0,0,1-1.563.905l-.409,2.071H9.19l-.41-2.048a5.4,5.4,0,0,1-1.558-.905l-1.984.646L3.878,12.654,5.447,11.27a5.134,5.134,0,0,1,0-1.805L3.878,8.04,5.239,5.733,7.218,6.4A5.11,5.11,0,0,1,8.781,5.5L9.19,3.425h2.722l.41,2.048a5.4,5.4,0,0,1,1.558.905l1.984-.646L17.225,8.04,15.656,9.424a5.134,5.134,0,0,1,0,1.805l1.569,1.425Z" transform="translate(0 0)"/>
    <path id="Path_159" data-name="Path 159" d="M14.711,18.172a3.426,3.426,0,1,1,2.457-1A3.461,3.461,0,0,1,14.711,18.172Zm0-5.768a2.255,2.255,0,1,0,1.647.66,2.255,2.255,0,0,0-1.647-.66Z" transform="translate(-4.159 -4.364)"/>
  </g>
</svg>
